#!OML:ASF C:\Vicon Data\Big\jianyuan-13\jianyuan\Session 1\Capture.male.ASF
:FULLY-SPECIFIED
:DEGREES
195
root -6.796205 17.835788 -2.582731 6.673173 1.826260 3.509216
lowerback -8.916030 -1.266171 -3.440433 
upperback 1.855315 -1.268711 -0.391778 
thorax 7.032528 -0.755078 1.334723 
lowerneck -1.039380 0.379475 2.527143 
upperneck -0.835998 0.462897 -4.833346 
head -0.064875 0.224987 -1.932350 
rclavicle 0.000000 0.000000 
rhumerus -48.457462 -12.584169 -80.386820 
rradius 33.376255 
rwrist 23.973419 
rhand -17.718284 -18.210605 
rfingers 0.000000 
rthumb 8.542179 -48.017843 
lclavicle 0.000000 0.000000 
lhumerus -15.768762 17.110235 88.965963 
lradius 34.268540 
lwrist -39.482447 
lhand -21.868078 1.506576 
lfingers 0.000000 
lthumb 4.536128 31.438023 
rfemur -63.398681 -11.989777 17.247860 
rtibia 92.746589 
rfoot -5.658875 -4.031961 
rtoes -35.028026 
lfemur -11.856214 -2.122397 -28.942628 
ltibia 24.368121 
lfoot -13.122661 0.867818 
ltoes -28.399843 
196
root -6.793642 17.841615 -2.506616 6.484774 1.935491 3.407748
lowerback -8.785582 -1.321321 -3.418462 
upperback 1.894956 -1.353108 -0.339599 
thorax 7.004999 -0.796892 1.366521 
lowerneck -1.043270 0.412018 2.595715 
upperneck -0.792780 0.506989 -4.883486 
head -0.048723 0.246459 -1.960743 
rclavicle 0.000000 0.000000 
rhumerus -48.650697 -12.638235 -80.276737 
rradius 33.322030 
rwrist 24.046110 
rhand -17.561112 -18.153986 
rfingers 0.000000 
rthumb 8.693897 -47.954919 
lclavicle 0.000000 0.000000 
lhumerus -15.348143 16.232941 89.190226 
lradius 34.808537 
lwrist -38.747883 
lhand -21.664153 1.498339 
lfingers 0.000000 
lthumb 4.733043 31.425487 
rfemur -63.603326 -11.718931 17.379756 
rtibia 91.661774 
rfoot -5.735939 -3.982102 
rtoes -34.741860 
lfemur -11.148224 -2.276940 -28.834959 
ltibia 23.968171 
lfoot -13.153572 0.923410 
ltoes -28.253856 
197
root -6.789113 17.843573 -2.430270 6.407679 2.028801 3.380344
lowerback -8.774587 -1.391135 -3.441696 
upperback 1.894788 -1.446297 -0.308205 
thorax 7.004918 -0.844210 1.398775 
lowerneck -1.053163 0.441841 2.613031 
upperneck -0.731494 0.548604 -4.889152 
head -0.026303 0.266610 -1.965427 
rclavicle 0.000000 0.000000 
rhumerus -48.865408 -12.796217 -80.046661 
rradius 33.225867 
rwrist 24.349115 
rhand -17.361406 -18.127987 
rfingers 0.000000 
rthumb 8.886623 -47.920789 
lclavicle 0.000000 0.000000 
lhumerus -14.943562 15.426689 89.450923 
lradius 35.363639 
lwrist -37.812778 
lhand -21.789133 1.966537 
lfingers 0.000000 
lthumb 4.612343 31.896348 
rfemur -63.857784 -11.447079 17.420604 
rtibia 90.496030 
rfoot -5.649279 -3.750523 
rtoes -34.771075 
lfemur -10.569458 -2.432382 -28.816836 
ltibia 23.608169 
lfoot -13.271120 0.979183 
ltoes -28.344270 
198
root -6.787503 17.845394 -2.353207 6.357615 2.086813 3.375210
lowerback -8.829017 -1.436504 -3.512080 
upperback 1.913392 -1.496712 -0.300106 
thorax 7.061061 -0.872923 1.437774 
lowerneck -1.031937 0.458018 2.633269 
upperneck -0.752325 0.569740 -4.852486 
head -0.035582 0.277560 -1.957123 
rclavicle 0.000000 0.000000 
rhumerus -48.997313 -12.895242 -79.939115 
rradius 33.155976 
rwrist 24.147177 
rhand -17.240941 -17.916759 
rfingers 0.000000 
rthumb 9.002864 -47.704666 
lclavicle 0.000000 0.000000 
lhumerus -14.555967 14.657440 89.655523 
lradius 35.786021 
lwrist -37.290705 
lhand -21.998436 1.836549 
lfingers 0.000000 
lthumb 4.410278 31.770639 
rfemur -64.115492 -11.096387 17.413959 
rtibia 89.286261 
rfoot -5.652542 -3.631228 
rtoes -34.250272 
lfemur -10.039326 -2.376552 -28.810113 
ltibia 23.252849 
lfoot -13.294206 0.917419 
ltoes -28.734647 
199
root -6.788643 17.847302 -2.274026 6.166116 2.104686 3.283941
lowerback -8.738335 -1.455967 -3.537732 
upperback 1.938807 -1.526981 -0.243919 
thorax 7.040181 -0.890236 1.508289 
lowerneck -0.965000 0.465437 2.638423 
upperneck -0.744562 0.580973 -4.836269 
head -0.044115 0.283933 -1.952876 
rclavicle 0.000000 0.000000 
rhumerus -49.211486 -13.011193 -79.744391 
rradius 33.012647 
rwrist 24.291721 
rhand -17.309193 -17.812344 
rfingers 0.000000 
rthumb 8.937008 -47.603031 
lclavicle 0.000000 0.000000 
lhumerus -14.296271 13.918992 89.808897 
lradius 36.307240 
lwrist -36.953733 
lhand -21.927899 1.628106 
lfingers 0.000000 
lthumb 4.478420 31.560792 
rfemur -64.105555 -10.660228 17.464512 
rtibia 87.980895 
rfoot -5.637883 -3.344745 
rtoes -34.353727 
lfemur -9.304065 -2.393833 -28.713410 
ltibia 22.826237 
lfoot -13.399263 0.950925 
ltoes -28.744602 
200
root -6.784173 17.850650 -2.196783 6.047555 2.216747 3.388213
lowerback -8.710389 -1.541315 -3.695531 
upperback 1.975301 -1.623615 -0.242620 
thorax 7.073776 -0.945142 1.583733 
lowerneck -0.999957 0.497073 2.648863 
upperneck -0.724974 0.623184 -4.857978 
head -0.030301 0.304422 -1.961550 
rclavicle 0.000000 0.000000 
rhumerus -49.335381 -13.016838 -79.634346 
rradius 32.841395 
rwrist 24.570886 
rhand -17.349989 -17.905760 
rfingers 0.000000 
rthumb 8.897599 -47.698185 
lclavicle 0.000000 0.000000 
lhumerus -13.915614 13.251053 90.021854 
lradius 36.847154 
lwrist -36.064141 
lhand -21.818472 1.815642 
lfingers 0.000000 
lthumb 4.584028 31.746037 
rfemur -64.129377 -10.403844 17.240523 
rtibia 86.602866 
rfoot -5.431848 -3.030408 
rtoes -34.069545 
lfemur -8.623506 -2.813729 -28.865790 
ltibia 22.395089 
lfoot -13.592401 1.244167 
ltoes -28.777362 
